<svg width="28" height="34" viewBox="0 0 28 34" fill="none" xmlns="http://www.w3.org/2000/svg">
<path d="M18.9001 5.65C19.5302 4.92379 20.0106 4.08028 20.3138 3.16789C20.617 2.2555 20.7369 1.29221 20.6668 0.333328C18.7324 0.489473 16.9368 1.39926 15.6668 2.86666C15.0586 3.56995 14.5977 4.38813 14.3114 5.27274C14.0252 6.15734 13.9193 7.0904 14.0001 8.01666C14.9437 8.02452 15.8764 7.81515 16.7261 7.40476C17.5758 6.99437 18.3196 6.39395 18.9001 5.65ZM23.1001 18.05C23.1113 16.7729 23.4477 15.5197 24.0775 14.4087C24.7074 13.2976 25.61 12.3654 26.7001 11.7C26.0121 10.7087 25.1027 9.89139 24.0438 9.31279C22.985 8.73419 21.8059 8.41025 20.6001 8.36666C18.0001 8.1 15.6001 9.88333 14.2168 9.88333C12.8334 9.88333 10.8834 8.4 8.71676 8.43333C7.30031 8.47999 5.92013 8.89296 4.71084 9.63197C3.50155 10.371 2.50444 11.4108 1.81676 12.65C-1.11657 17.75 1.06676 25.3333 4.0001 29.45C5.33343 31.4667 7.0001 33.75 9.2001 33.6667C11.4001 33.5833 12.1168 32.3 14.6668 32.3C17.2168 32.3 18.0001 33.6667 20.1668 33.6167C22.3334 33.5667 23.8668 31.55 25.2668 29.5333C26.2585 28.0692 27.0332 26.4693 27.5668 24.7833C26.2459 24.22 25.119 23.2821 24.3252 22.0855C23.5314 20.8889 23.1055 19.486 23.1001 18.05Z" fill="#111111"/>
</svg>
