<svg width="32" height="34" viewBox="0 0 32 34" fill="none" xmlns="http://www.w3.org/2000/svg">
<path d="M31.75 14.5L31.5859 13.8046H16.4688V20.2031H25.5C24.5625 24.6562 20.2109 27 16.6562 27C14.0703 27 11.3438 25.914 9.53906 24.164C7.6875 22.3671 6.50781 19.7187 6.50781 16.9921C6.50781 14.2968 7.71875 11.6015 9.48438 9.82808C11.2422 8.06245 13.9062 7.06246 16.5547 7.06246C19.5859 7.06246 21.7578 8.67183 22.5703 9.40621L27.1172 4.88277C25.7812 3.71089 22.1172 0.757767 16.4062 0.757767C12 0.757767 7.77344 2.44527 4.6875 5.52339C1.64062 8.55464 0.0625 12.9375 0.0625 17C0.0625 21.0625 1.55469 25.2343 4.50781 28.289C7.66406 31.5468 12.1328 33.25 16.7344 33.25C20.9219 33.25 24.8906 31.6093 27.7188 28.6328C30.5 25.7031 31.9375 21.6484 31.9375 17.3984C31.9375 15.6093 31.7578 14.5468 31.75 14.5Z" fill="#121212"/>
</svg>
